<svg version="1.0" xmlns="http://www.w3.org/2000/svg"
 class="arrow_icon" viewBox="0 0 128.000000 128.000000"
 preserveAspectRatio="xMidYMid meet">

<g transform="translate(0.000000,128.000000) scale(0.100000,-0.100000)"
 stroke="none">
<path d="M353 1028 c-169 -169 -254 -261 -258 -279 -13 -59 45 -117 105 -104
25 6 298 271 334 325 15 23 16 -7 16 -444 l0 -468 29 -29 c40 -39 82 -39 122
0 l29 29 0 469 c0 463 0 468 19 438 10 -16 84 -94 162 -172 158 -157 180 -169
236 -134 35 22 52 75 35 107 -6 11 -122 130 -259 267 -228 226 -252 247 -283
247 -31 0 -56 -21 -287 -252z"/>
</g>
</svg>
