
<svg version="1.0" xmlns="http://www.w3.org/2000/svg"
 class="close" viewBox="0 0 128.000000 128.000000"
 preserveAspectRatio="xMidYMid meet">

<g transform="translate(0.000000,128.000000) scale(0.100000,-0.100000)"
 stroke="none">
<path d="M196 1084 c-9 -8 -16 -23 -16 -32 0 -9 89 -106 197 -214 l198 -198
-199 -199 c-179 -179 -198 -201 -192 -225 4 -17 15 -28 32 -32 24 -6 46 13
225 192 l199 199 199 -199 c179 -179 201 -198 225 -192 17 4 28 15 32 32 6 24
-13 46 -192 225 l-199 199 199 199 c179 179 198 201 192 225 -4 17 -15 28 -32
32 -24 6 -46 -13 -225 -192 l-199 -199 -198 198 c-108 108 -205 197 -214 197
-9 0 -24 -7 -32 -16z"/>
</g>
</svg>
