
<svg version="1.0" xmlns="http://www.w3.org/2000/svg"
 class="upload_icon" viewBox="0 0 128.000000 128.000000"
 preserveAspectRatio="xMidYMid meet">

<g transform="translate(0.000000,128.000000) scale(0.100000,-0.100000)"
 stroke="none">
<path d="M900 1268 c-69 -20 -141 -83 -467 -410 -381 -382 -388 -392 -381
-521 6 -131 83 -241 208 -301 55 -26 77 -31 140 -31 124 0 134 8 478 349 166
165 302 307 302 316 0 20 -19 40 -39 40 -8 0 -146 -130 -305 -289 -189 -187
-307 -296 -336 -311 -93 -48 -205 -25 -290 60 -51 51 -70 90 -77 155 -10 100
-11 99 366 478 190 192 362 357 381 367 79 41 149 35 212 -18 59 -50 74 -131
38 -211 -14 -31 -93 -117 -262 -287 -133 -134 -258 -255 -279 -270 -75 -52
-149 -41 -184 26 -13 25 -14 38 -4 73 9 35 45 77 235 268 123 124 224 233 224
241 0 23 -27 41 -52 35 -33 -9 -441 -423 -466 -474 -73 -143 5 -282 159 -283
86 0 124 29 411 317 298 300 318 326 318 438 0 173 -161 292 -330 243z"/>
</g>
</svg>
